STARTFONT 2.1
FONT -Samiam-VenusTerm-Book-R-Normal--29-210-100-100-M-170-ISO10646-1
SIZE 21 100 100
FONTBOUNDINGBOX 18 33 0 -6
COMMENT "Generated by fontforge, http://fontforge.sourceforge.net"
COMMENT "Digitized data copyright (c) 2012-2015, The Mozilla Foundation and Telefonica S.A."
STARTPROPERTIES 40
FOUNDRY "Samiam"
FAMILY_NAME "VenusTerm"
WEIGHT_NAME "Book"
SLANT "R"
SETWIDTH_NAME "Normal"
ADD_STYLE_NAME ""
PIXEL_SIZE 29
POINT_SIZE 210
RESOLUTION_X 100
RESOLUTION_Y 100
SPACING "M"
AVERAGE_WIDTH 170
CHARSET_REGISTRY "ISO10646"
CHARSET_ENCODING "1"
FONTNAME_REGISTRY ""
CHARSET_COLLECTIONS "ISO10646-1"
FONT_NAME "VenusTerm"
FACE_NAME "VenusTerm"
COPYRIGHT "Digitized data copyright (c) 2012-2015, The Mozilla Foundation and Telefonica S.A."
FONT_VERSION "3.206;PS 003.206;hotconv 1.0.70;makeotf.lib2.5.58329; ttfautohint (v1.8.3) -l 8 -r 50 -G 200 -x 14 -D latn -f none -a qss -W -X """
FONT_ASCENT 23
FONT_DESCENT 6
UNDERLINE_POSITION -3
UNDERLINE_THICKNESS 2
X_HEIGHT 15
CAP_HEIGHT 19
RAW_ASCENT 800
RAW_DESCENT 200
NORM_SPACE 17
RELATIVE_WEIGHT 40
RELATIVE_SETWIDTH 50
SUPERSCRIPT_X 0
SUPERSCRIPT_Y 10
SUPERSCRIPT_SIZE 17
SUBSCRIPT_X 0
SUBSCRIPT_Y 2
SUBSCRIPT_SIZE 17
FIGURE_WIDTH 17
AVG_LOWERCASE_WIDTH 170
AVG_UPPERCASE_WIDTH 170
ENDPROPERTIES
CHARS 126
STARTCHAR uni000D
ENCODING 13
SWIDTH 600 0
DWIDTH 17 0
BBX 1 1 0 0
BITMAP
00
ENDCHAR
STARTCHAR space
ENCODING 32
SWIDTH 600 0
DWIDTH 17 0
BBX 1 1 0 0
BITMAP
00
ENDCHAR
STARTCHAR exclam
ENCODING 33
SWIDTH 600 0
DWIDTH 17 0
BBX 5 20 6 0
BITMAP
70
70
70
70
70
70
70
70
70
70
70
70
70
00
00
00
70
F8
78
70
ENDCHAR
STARTCHAR quotedbl
ENCODING 34
SWIDTH 600 0
DWIDTH 17 0
BBX 9 8 4 14
BITMAP
F780
F380
7380
7380
7380
7380
7380
6380
ENDCHAR
STARTCHAR numbersign
ENCODING 35
SWIDTH 600 0
DWIDTH 17 0
BBX 15 20 1 0
BITMAP
0E1C
0E18
0E38
0E38
7FFE
7FFE
7FFE
1C38
1C30
1C30
1C70
1C70
1C70
FFFC
FFFC
FFFC
3860
3860
38E0
38E0
ENDCHAR
STARTCHAR dollar
ENCODING 36
SWIDTH 600 0
DWIDTH 17 0
BBX 14 30 2 -4
BITMAP
0300
0300
0300
0300
0300
0FC0
3FF0
7FFC
7318
F300
F300
7300
7B00
7F00
1FC0
0FF0
03F8
0378
033C
033C
031C
433C
E338
FFF8
7FF0
1FC0
0300
0300
0300
0300
ENDCHAR
STARTCHAR percent
ENCODING 37
SWIDTH 600 0
DWIDTH 17 0
BBX 17 21 0 -1
BITMAP
3E0200
7F0700
7F8E00
E38C00
E39C00
63B800
7F3000
3E7000
00E000
00C000
01C000
019E00
033F00
077380
066380
0E6180
1C6380
187380
383F00
301E00
100000
ENDCHAR
STARTCHAR ampersand
ENCODING 38
SWIDTH 600 0
DWIDTH 17 0
BBX 16 20 1 0
BITMAP
0FC0
1FE0
3FF0
7820
7800
3800
3C00
1FFF
0FFF
3FFF
7838
7038
F038
F038
F038
7038
7838
7FF8
3FF0
0FC0
ENDCHAR
STARTCHAR quotesingle
ENCODING 39
SWIDTH 600 0
DWIDTH 17 0
BBX 3 8 7 14
BITMAP
E0
E0
E0
E0
E0
E0
E0
E0
ENDCHAR
STARTCHAR parenleft
ENCODING 40
SWIDTH 600 0
DWIDTH 17 0
BBX 10 29 3 -4
BITMAP
0100
0180
03C0
0700
0E00
1E00
3C00
3800
7800
7000
7000
7000
F000
F000
F000
F000
F000
7000
7000
7000
7800
3800
3800
1C00
1E00
0F00
0780
03C0
0180
ENDCHAR
STARTCHAR parenright
ENCODING 41
SWIDTH 600 0
DWIDTH 17 0
BBX 9 29 5 -4
BITMAP
4000
E000
F000
7800
3C00
1C00
1E00
0E00
0F00
0700
0780
0780
0380
0380
0380
0380
0380
0380
0780
0700
0700
0F00
0E00
1E00
1C00
3800
7000
E000
4000
ENDCHAR
STARTCHAR asterisk
ENCODING 42
SWIDTH 600 0
DWIDTH 17 0
BBX 12 12 3 4
BITMAP
0E00
0E00
0E00
C660
F7E0
FFF0
1F00
1F00
3B80
39C0
71C0
1080
ENDCHAR
STARTCHAR plus
ENCODING 43
SWIDTH 600 0
DWIDTH 17 0
BBX 11 12 3 3
BITMAP
0E00
0E00
0E00
0E00
0E00
FFE0
FFE0
FFE0
0E00
0E00
0E00
0E00
ENDCHAR
STARTCHAR comma
ENCODING 44
SWIDTH 600 0
DWIDTH 17 0
BBX 5 11 6 -6
BITMAP
70
F8
F8
F8
78
78
70
70
E0
E0
E0
ENDCHAR
STARTCHAR hyphen
ENCODING 45
SWIDTH 600 0
DWIDTH 17 0
BBX 11 3 3 8
BITMAP
FFE0
FFE0
FFE0
ENDCHAR
STARTCHAR period
ENCODING 46
SWIDTH 600 0
DWIDTH 17 0
BBX 5 6 6 0
BITMAP
70
F8
F8
F8
F8
70
ENDCHAR
STARTCHAR slash
ENCODING 47
SWIDTH 600 0
DWIDTH 17 0
BBX 15 27 1 -3
BITMAP
0008
000E
000E
001C
001C
0038
0038
0070
0070
00E0
00E0
01C0
01C0
0380
0380
0700
0700
0E00
0E00
1E00
1C00
3C00
3800
7800
7000
F000
2000
ENDCHAR
STARTCHAR zero
ENCODING 48
SWIDTH 600 0
DWIDTH 17 0
BBX 14 20 2 0
BITMAP
0F80
1FE0
3FF0
7870
7078
F0F8
E0F8
E1B8
E1B8
E33C
E338
E638
E638
EC38
F838
7878
7070
3FF0
1FE0
0F80
ENDCHAR
STARTCHAR one
ENCODING 49
SWIDTH 600 0
DWIDTH 17 0
BBX 13 20 2 0
BITMAP
0380
0F80
1F80
7F80
F380
6380
0380
0380
0380
0380
0380
0380
0380
0380
0380
0380
0380
7FF8
7FF8
7FF8
ENDCHAR
STARTCHAR two
ENCODING 50
SWIDTH 600 0
DWIDTH 17 0
BBX 13 20 2 0
BITMAP
1F80
7FC0
FFE0
E0F0
4070
0070
0070
0070
00F0
00E0
01C0
03C0
0780
0F00
1E00
3C00
7800
FFF8
FFF8
FFF0
ENDCHAR
STARTCHAR three
ENCODING 51
SWIDTH 600 0
DWIDTH 17 0
BBX 14 20 1 0
BITMAP
0FC0
3FF0
7FF8
2078
0038
0038
0078
07F0
07C0
07F0
0078
0038
003C
003C
003C
203C
6078
FFF8
7FF0
1FC0
ENDCHAR
STARTCHAR four
ENCODING 52
SWIDTH 600 0
DWIDTH 17 0
BBX 14 21 2 0
BITMAP
0600
0700
0F00
0E00
0E00
1E00
1C00
3C00
38E0
38E0
78E0
70E0
F0E0
E0E0
FFFC
FFFC
FFFC
00E0
00E0
00E0
00E0
ENDCHAR
STARTCHAR five
ENCODING 53
SWIDTH 600 0
DWIDTH 17 0
BBX 13 20 2 0
BITMAP
7FF0
7FF0
7FF0
7000
7000
7000
7180
7FE0
7FF0
70F0
0078
0038
0038
0038
0038
4078
60F0
FFF0
7FE0
1F80
ENDCHAR
STARTCHAR six
ENCODING 54
SWIDTH 600 0
DWIDTH 17 0
BBX 14 20 2 0
BITMAP
07E0
1FF0
3FE0
3800
7000
7000
F3C0
EFF0
FFF8
F878
F038
E038
E03C
F03C
F038
7038
7878
3FF0
3FE0
0F80
ENDCHAR
STARTCHAR seven
ENCODING 55
SWIDTH 600 0
DWIDTH 17 0
BBX 13 21 2 -1
BITMAP
FFF8
FFF8
FFF8
0070
0070
00F0
00E0
01E0
01C0
01C0
0380
0380
0780
0700
0F00
0E00
1E00
1C00
1C00
3C00
0800
ENDCHAR
STARTCHAR eight
ENCODING 56
SWIDTH 600 0
DWIDTH 17 0
BBX 14 20 2 0
BITMAP
0FC0
3FE0
7FF0
7078
F038
F038
7038
7870
3EE0
1FC0
3FF0
70F8
E038
E03C
E03C
E03C
F038
7FF8
7FF0
1FC0
ENDCHAR
STARTCHAR nine
ENCODING 57
SWIDTH 600 0
DWIDTH 17 0
BBX 13 22 2 -2
BITMAP
0F80
3FE0
7FF0
F070
E078
E038
E038
E038
E038
F078
F0F8
7FF8
3FB8
0E78
0070
00F0
01E0
03C0
0F80
7F00
3800
2000
ENDCHAR
STARTCHAR colon
ENCODING 58
SWIDTH 600 0
DWIDTH 17 0
BBX 5 16 6 0
BITMAP
70
F8
F8
F8
70
00
00
00
00
00
00
70
F8
F8
F8
70
ENDCHAR
STARTCHAR semicolon
ENCODING 59
SWIDTH 600 0
DWIDTH 17 0
BBX 5 21 6 -5
BITMAP
70
F8
F8
F8
70
00
00
00
00
00
70
F8
F8
F8
78
78
70
70
E0
E0
C0
ENDCHAR
STARTCHAR less
ENCODING 60
SWIDTH 600 0
DWIDTH 17 0
BBX 13 16 2 1
BITMAP
0030
00F8
01F0
07C0
0F80
3E00
FC00
F000
F000
7C00
3E00
0F80
07E0
01F0
0078
0030
ENDCHAR
STARTCHAR equal
ENCODING 61
SWIDTH 600 0
DWIDTH 17 0
BBX 12 9 3 5
BITMAP
FFF0
FFF0
FFF0
0000
0000
0000
FFF0
FFF0
FFF0
ENDCHAR
STARTCHAR greater
ENCODING 62
SWIDTH 600 0
DWIDTH 17 0
BBX 13 16 2 1
BITMAP
6000
F800
7E00
1F00
07C0
03E0
00F8
0038
0078
00F8
03E0
0FC0
1F00
7C00
F800
6000
ENDCHAR
STARTCHAR question
ENCODING 63
SWIDTH 600 0
DWIDTH 17 0
BBX 13 20 2 0
BITMAP
0FC0
3FE0
FFF0
6078
2078
0078
00F0
01F0
03C0
0780
0700
0F00
0E00
0000
0000
0000
0E00
0F00
0F00
0E00
ENDCHAR
STARTCHAR at
ENCODING 64
SWIDTH 600 0
DWIDTH 17 0
BBX 17 24 0 -4
BITMAP
07F000
1FF800
7FFE00
F00E00
400700
000700
000380
070380
1FE380
3FE380
38E380
70E380
70E380
70E380
70E380
70E380
70E380
70E380
70E380
79E380
3FF700
3F3F00
0C3E00
000C00
ENDCHAR
STARTCHAR A
ENCODING 65
SWIDTH 600 0
DWIDTH 17 0
BBX 17 20 0 0
BITMAP
03E000
03E000
03F000
077000
077000
077800
073800
0E3800
0E3C00
0E1C00
1C1C00
1C1C00
1FFE00
3FFE00
3FFE00
380F00
780700
700700
700780
F00780
ENDCHAR
STARTCHAR B
ENCODING 66
SWIDTH 600 0
DWIDTH 17 0
BBX 14 20 2 0
BITMAP
FFC0
FFF0
FFF8
F078
F038
F038
F078
F070
FFE0
FFE0
FFF8
F038
F03C
F03C
F03C
F03C
F03C
FFF8
FFF0
FFC0
ENDCHAR
STARTCHAR C
ENCODING 67
SWIDTH 600 0
DWIDTH 17 0
BBX 15 20 2 0
BITMAP
07F0
1FFC
3FFC
7808
7000
F000
F000
E000
E000
E000
E000
E000
E000
E000
F000
7000
780C
3FFE
1FFC
07F0
ENDCHAR
STARTCHAR D
ENCODING 68
SWIDTH 600 0
DWIDTH 17 0
BBX 14 20 2 0
BITMAP
FF80
FFE0
FFF0
E078
E078
E03C
E03C
E01C
E01C
E01C
E01C
E01C
E01C
E03C
E03C
E078
E0F8
FFF0
FFE0
FF80
ENDCHAR
STARTCHAR E
ENCODING 69
SWIDTH 600 0
DWIDTH 17 0
BBX 12 20 3 0
BITMAP
FFF0
FFF0
FFF0
F000
F000
F000
F000
F000
FFE0
FFE0
FFE0
F000
F000
F000
F000
F000
F000
FFF0
FFF0
FFF0
ENDCHAR
STARTCHAR F
ENCODING 70
SWIDTH 600 0
DWIDTH 17 0
BBX 12 20 4 0
BITMAP
FFF0
FFF0
FFF0
E000
E000
E000
E000
E000
E000
FFE0
FFE0
FFE0
E000
E000
E000
E000
E000
E000
E000
E000
ENDCHAR
STARTCHAR G
ENCODING 71
SWIDTH 600 0
DWIDTH 17 0
BBX 15 20 1 0
BITMAP
03F0
0FFC
1FFE
3C08
7800
7000
F000
F000
F0FE
F0FE
F0FE
F00E
F00E
F00E
700E
780E
7C0E
3FFE
1FFE
07F0
ENDCHAR
STARTCHAR H
ENCODING 72
SWIDTH 600 0
DWIDTH 17 0
BBX 13 20 2 0
BITMAP
E038
E038
E038
E038
E038
E038
E038
E038
FFF8
FFF8
FFF8
E038
E038
E038
E038
E038
E038
E038
E038
E038
ENDCHAR
STARTCHAR I
ENCODING 73
SWIDTH 600 0
DWIDTH 17 0
BBX 12 20 3 0
BITMAP
FFF0
FFF0
FFF0
0E00
0E00
0E00
0E00
0E00
0E00
0E00
0E00
0E00
0E00
0E00
0E00
0E00
0E00
FFF0
FFF0
FFF0
ENDCHAR
STARTCHAR J
ENCODING 74
SWIDTH 600 0
DWIDTH 17 0
BBX 13 20 2 0
BITMAP
1FF8
1FF8
1FF8
0078
0078
0078
0078
0078
0078
0078
0078
0078
0078
0078
0078
0070
40F0
FFE0
FFC0
3F80
ENDCHAR
STARTCHAR K
ENCODING 75
SWIDTH 600 0
DWIDTH 17 0
BBX 14 20 3 0
BITMAP
E03C
E078
E0F0
E1E0
E1C0
E3C0
E780
EF00
EE00
FE00
EF00
E700
E780
E3C0
E1C0
E1E0
E0F0
E078
E078
E03C
ENDCHAR
STARTCHAR L
ENCODING 76
SWIDTH 600 0
DWIDTH 17 0
BBX 13 20 3 0
BITMAP
F000
F000
F000
F000
F000
F000
F000
F000
F000
F000
F000
F000
F000
F000
F000
F000
F000
FFF8
FFF8
FFF8
ENDCHAR
STARTCHAR M
ENCODING 77
SWIDTH 600 0
DWIDTH 17 0
BBX 16 20 1 0
BITMAP
783E
783E
783E
7C3E
7C3E
6C7E
EC6E
EC6E
EE6E
E66E
E6CE
E6CE
E7CE
E3CE
E3CE
E38E
E00E
E00F
E007
E007
ENDCHAR
STARTCHAR N
ENCODING 78
SWIDTH 600 0
DWIDTH 17 0
BBX 13 20 2 0
BITMAP
F838
F838
F838
FC38
FC38
FC38
EE38
EE38
E738
E738
E738
E3B8
E3B8
E3B8
E1D8
E1D8
E0F8
E0F8
E0F8
E078
ENDCHAR
STARTCHAR O
ENCODING 79
SWIDTH 600 0
DWIDTH 17 0
BBX 15 20 1 0
BITMAP
07E0
1FF0
3FF8
383C
701C
701E
F00E
F00E
F00E
F00E
F00E
F00E
F00E
F00E
701E
781C
783C
3FF8
1FF0
07C0
ENDCHAR
STARTCHAR P
ENCODING 80
SWIDTH 600 0
DWIDTH 17 0
BBX 13 20 3 0
BITMAP
FF80
FFE0
FFF0
E078
E078
E038
E038
E038
E078
E0F8
FFF0
FFE0
FE00
E000
E000
E000
E000
E000
E000
E000
ENDCHAR
STARTCHAR Q
ENCODING 81
SWIDTH 600 0
DWIDTH 17 0
BBX 17 25 1 -5
BITMAP
07E000
1FF000
3FF800
383C00
781C00
701E00
F01E00
F00E00
F00E00
F00E00
F00E00
F00E00
F00E00
F01E00
701E00
781C00
783C00
3FF800
1FF000
07F800
003E00
000F00
000F00
000780
000400
ENDCHAR
STARTCHAR R
ENCODING 82
SWIDTH 600 0
DWIDTH 17 0
BBX 15 20 2 0
BITMAP
FFC0
FFF0
FFF8
F078
F03C
F03C
F03C
F03C
F078
FFF0
FFE0
FFC0
F1C0
F1E0
F0E0
F0F0
F078
F038
F03C
F01E
ENDCHAR
STARTCHAR S
ENCODING 83
SWIDTH 600 0
DWIDTH 17 0
BBX 15 20 1 0
BITMAP
07E0
1FF8
3FFC
7818
7000
7000
7800
7E00
3FC0
0FF0
03F8
007C
001E
001E
001E
401E
603C
FFFC
7FF8
1FE0
ENDCHAR
STARTCHAR T
ENCODING 84
SWIDTH 600 0
DWIDTH 17 0
BBX 15 20 1 0
BITMAP
FFFE
FFFE
FFFE
0380
0380
0380
0380
0380
0380
0380
0380
0380
0380
0380
0380
0380
0380
0380
0380
0380
ENDCHAR
STARTCHAR U
ENCODING 85
SWIDTH 600 0
DWIDTH 17 0
BBX 14 20 2 0
BITMAP
E03C
E03C
E03C
E03C
E03C
E03C
E03C
E03C
E03C
E03C
E03C
E03C
E03C
E03C
E03C
F038
F078
7FF0
3FE0
0FC0
ENDCHAR
STARTCHAR V
ENCODING 86
SWIDTH 600 0
DWIDTH 17 0
BBX 17 20 0 0
BITMAP
F00780
700780
780700
380700
380F00
3C0E00
3C0E00
1C1E00
1C1C00
1E1C00
0E1C00
0E3800
0F3800
073800
077000
077000
03F000
03E000
03E000
01E000
ENDCHAR
STARTCHAR W
ENCODING 87
SWIDTH 600 0
DWIDTH 17 0
BBX 17 20 0 0
BITMAP
E00380
E00380
F1C380
71E380
71E380
71E380
73E300
736700
736700
736700
737700
337700
373700
3F3700
3E3600
3E3600
3E3E00
3E3E00
3E3E00
1E1E00
ENDCHAR
STARTCHAR X
ENCODING 88
SWIDTH 600 0
DWIDTH 17 0
BBX 16 20 1 0
BITMAP
F01E
781C
383C
3C38
1C78
1E70
0EE0
0FE0
07C0
03C0
07C0
0FE0
0EE0
1E70
1C78
3C38
383C
781C
F01E
E00F
ENDCHAR
STARTCHAR Y
ENCODING 89
SWIDTH 600 0
DWIDTH 17 0
BBX 17 20 0 0
BITMAP
F00780
780700
380F00
3C0E00
1C1E00
1E1C00
0E3C00
0F3800
077800
07F000
03E000
03E000
01C000
01C000
01C000
01C000
01C000
01C000
01C000
01C000
ENDCHAR
STARTCHAR Z
ENCODING 90
SWIDTH 600 0
DWIDTH 17 0
BBX 14 20 2 0
BITMAP
7FFC
7FFC
7FFC
0078
0070
00F0
01E0
01C0
03C0
0780
0700
0F00
1E00
3C00
3C00
7800
F000
FFFC
FFFC
FFF8
ENDCHAR
STARTCHAR bracketleft
ENCODING 91
SWIDTH 600 0
DWIDTH 17 0
BBX 8 28 5 -3
BITMAP
FF
FF
FF
E0
E0
E0
E0
E0
E0
E0
E0
E0
E0
E0
E0
E0
E0
E0
E0
E0
E0
E0
E0
E0
E0
FF
FF
FF
ENDCHAR
STARTCHAR backslash
ENCODING 92
SWIDTH 600 0
DWIDTH 17 0
BBX 15 27 1 -3
BITMAP
2000
E000
7000
7000
3800
3800
1C00
1C00
0E00
0E00
0700
0700
0380
0380
03C0
01C0
01E0
00E0
00F0
0070
0078
0038
0038
001C
001C
000E
000C
ENDCHAR
STARTCHAR bracketright
ENCODING 93
SWIDTH 600 0
DWIDTH 17 0
BBX 8 28 4 -3
BITMAP
FF
FF
FF
07
07
07
07
07
07
07
07
07
07
07
07
07
07
07
07
07
07
07
07
07
07
FF
FF
FF
ENDCHAR
STARTCHAR asciicircum
ENCODING 94
SWIDTH 600 0
DWIDTH 17 0
BBX 14 10 2 16
BITMAP
0700
0780
0F80
0FC0
1DC0
3CE0
38F0
7070
7078
E03C
ENDCHAR
STARTCHAR underscore
ENCODING 95
SWIDTH 600 0
DWIDTH 17 0
BBX 15 3 1 -5
BITMAP
FFFE
FFFE
FFFE
ENDCHAR
STARTCHAR grave
ENCODING 96
SWIDTH 600 0
DWIDTH 17 0
BBX 7 5 5 18
BITMAP
60
78
FC
1E
06
ENDCHAR
STARTCHAR a
ENCODING 97
SWIDTH 600 0
DWIDTH 17 0
BBX 13 16 2 0
BITMAP
1F80
7FE0
7FF0
00F0
0070
0070
1FF0
7FF0
FFF0
F070
E070
E070
E0F0
FFF8
7FB8
3E18
ENDCHAR
STARTCHAR b
ENCODING 98
SWIDTH 600 0
DWIDTH 17 0
BBX 13 22 3 0
BITMAP
E000
E000
E000
E000
E000
E000
E7C0
EFE0
FFF0
F0F0
E070
E078
E078
E078
E078
E078
E078
E070
F0F0
FFE0
FFC0
EF80
ENDCHAR
STARTCHAR c
ENCODING 99
SWIDTH 600 0
DWIDTH 17 0
BBX 13 16 2 0
BITMAP
07E0
1FF8
3FF8
7810
7800
7000
7000
F000
F000
F000
7000
7800
7810
3FF8
1FF8
07E0
ENDCHAR
STARTCHAR d
ENCODING 100
SWIDTH 600 0
DWIDTH 17 0
BBX 13 22 2 0
BITMAP
0038
0038
0038
0038
0038
0038
1F38
3FB8
7FF8
7078
F038
E038
E038
E038
E038
E038
E038
F078
F078
7FF8
3FB8
1F38
ENDCHAR
STARTCHAR e
ENCODING 101
SWIDTH 600 0
DWIDTH 17 0
BBX 14 16 2 0
BITMAP
0FC0
1FE0
3FF0
7078
F038
E038
FFF8
FFFC
FFF8
E000
F000
F000
7810
3FF0
3FF8
0FC0
ENDCHAR
STARTCHAR f
ENCODING 102
SWIDTH 600 0
DWIDTH 17 0
BBX 13 22 3 0
BITMAP
03F0
0FF8
0FF8
1E00
1C00
1C00
1C00
FFE0
FFE0
FFE0
1C00
1C00
1C00
1C00
1C00
1C00
1C00
1C00
1C00
1C00
1C00
1C00
ENDCHAR
STARTCHAR g
ENCODING 103
SWIDTH 600 0
DWIDTH 17 0
BBX 14 24 2 -6
BITMAP
0004
001C
1FFC
3FF8
78E0
F070
E078
E078
F078
70F0
7FF0
3FE0
3700
7000
7000
7F80
3FF0
1FF8
003C
001C
E03C
FFF8
7FF8
3FC0
ENDCHAR
STARTCHAR h
ENCODING 104
SWIDTH 600 0
DWIDTH 17 0
BBX 12 22 3 0
BITMAP
E000
E000
E000
E000
E000
E000
E7C0
EFE0
FFF0
F0F0
E070
E070
E070
E070
E070
E070
E070
E070
E070
E070
E070
E070
ENDCHAR
STARTCHAR i
ENCODING 105
SWIDTH 600 0
DWIDTH 17 0
BBX 12 23 3 0
BITMAP
0E00
0F00
0F00
0E00
0000
0000
0000
FF00
FF00
FF00
0700
0700
0700
0700
0700
0700
0700
0700
0700
0700
FFF0
FFF0
FFF0
ENDCHAR
STARTCHAR j
ENCODING 106
SWIDTH 600 0
DWIDTH 17 0
BBX 11 29 2 -6
BITMAP
01C0
01E0
01E0
01C0
0000
0000
0000
3FE0
3FE0
3FE0
00E0
00E0
00E0
00E0
00E0
00E0
00E0
00E0
00E0
00E0
00E0
00E0
01E0
01C0
03C0
0F80
FF00
7C00
6000
ENDCHAR
STARTCHAR k
ENCODING 107
SWIDTH 600 0
DWIDTH 17 0
BBX 14 23 3 0
BITMAP
2000
E000
E000
E000
E000
E000
E000
E078
E0F0
E1E0
E3C0
E380
E700
EF00
FE00
EF00
E780
E380
E3C0
E1E0
E0F0
E078
E07C
ENDCHAR
STARTCHAR l
ENCODING 108
SWIDTH 600 0
DWIDTH 17 0
BBX 14 22 1 0
BITMAP
FF00
FF00
FF00
0700
0700
0700
0700
0700
0700
0700
0700
0700
0700
0700
0700
0700
0700
0700
0780
07F8
03FC
01F8
ENDCHAR
STARTCHAR m
ENCODING 109
SWIDTH 600 0
DWIDTH 17 0
BBX 15 16 1 0
BITMAP
EF3C
FFFE
FFFE
F3CE
E38E
E38E
E38E
E38E
E38E
E38E
E38E
E38E
E38E
E38E
E38E
E38E
ENDCHAR
STARTCHAR n
ENCODING 110
SWIDTH 600 0
DWIDTH 17 0
BBX 12 16 3 0
BITMAP
C7C0
EFE0
FFF0
F0F0
E0F0
E070
E070
E070
E070
E070
E070
E070
E070
E070
E070
E070
ENDCHAR
STARTCHAR o
ENCODING 111
SWIDTH 600 0
DWIDTH 17 0
BBX 14 16 2 0
BITMAP
0FC0
3FE0
7FF0
7078
F038
E038
E03C
E03C
E03C
E03C
F038
F038
7878
7FF0
3FE0
0F80
ENDCHAR
STARTCHAR p
ENCODING 112
SWIDTH 600 0
DWIDTH 17 0
BBX 13 22 3 -6
BITMAP
C7C0
FFE0
FFF0
F0F0
E070
E070
E078
E078
E078
E078
E070
E070
E0F0
FFE0
FFC0
EF80
E000
E000
E000
E000
E000
E000
ENDCHAR
STARTCHAR q
ENCODING 113
SWIDTH 600 0
DWIDTH 17 0
BBX 13 22 2 -6
BITMAP
1F38
3FB8
7FF8
7078
F038
E038
E038
E038
E038
E038
E038
F078
F078
7FF8
3FB8
1F38
0038
0038
0038
0038
0038
0038
ENDCHAR
STARTCHAR r
ENCODING 114
SWIDTH 600 0
DWIDTH 17 0
BBX 13 16 3 0
BITMAP
F8F8
F9F8
FBF8
3F30
3E30
3C30
3C00
3800
3800
3800
3800
3800
3800
FF00
FF00
FF00
ENDCHAR
STARTCHAR s
ENCODING 115
SWIDTH 600 0
DWIDTH 17 0
BBX 13 16 2 0
BITMAP
0FC0
3FF8
7FF0
7010
7000
7800
7F00
3FC0
07F0
00F8
0078
0078
6078
FFF0
7FE0
1F80
ENDCHAR
STARTCHAR t
ENCODING 116
SWIDTH 600 0
DWIDTH 17 0
BBX 13 20 2 0
BITMAP
0E00
1E00
1E00
1E00
FFF0
FFF0
FFF0
1E00
1E00
1E00
1E00
1E00
1E00
1E00
1E00
1E00
0E00
0FF8
07F8
03F0
ENDCHAR
STARTCHAR u
ENCODING 117
SWIDTH 600 0
DWIDTH 17 0
BBX 12 16 3 0
BITMAP
E070
E070
E070
E070
E070
E070
E070
E070
E070
E070
E070
E070
E0F0
F3F0
FF70
3E70
ENDCHAR
STARTCHAR v
ENCODING 118
SWIDTH 600 0
DWIDTH 17 0
BBX 15 16 1 0
BITMAP
F00E
701E
781C
381C
383C
3C38
1C38
1C70
1C70
0E70
0E60
0EE0
07E0
07C0
07C0
03C0
ENDCHAR
STARTCHAR w
ENCODING 119
SWIDTH 600 0
DWIDTH 17 0
BBX 17 16 0 0
BITMAP
F00380
700380
71E380
71E380
71E700
71E700
736700
336700
337700
3B7700
3B3600
3F3600
3F3600
1E3E00
1E3E00
1E3E00
ENDCHAR
STARTCHAR x
ENCODING 120
SWIDTH 600 0
DWIDTH 17 0
BBX 15 16 1 0
BITMAP
781C
3838
3C78
1E70
0EF0
0FE0
07C0
03C0
07C0
07E0
0EF0
1C70
1C78
383C
783C
F01E
ENDCHAR
STARTCHAR y
ENCODING 121
SWIDTH 600 0
DWIDTH 17 0
BBX 15 22 1 -6
BITMAP
F01E
701E
781C
381C
383C
3838
1C38
1C78
1C70
1E70
0E70
0EE0
0EE0
07E0
07C0
07C0
0380
0380
0780
1F00
3E00
3C00
ENDCHAR
STARTCHAR z
ENCODING 122
SWIDTH 600 0
DWIDTH 17 0
BBX 12 16 3 0
BITMAP
FFF0
FFF0
FFF0
01E0
03C0
0380
0780
0F00
1E00
1C00
3C00
7800
F000
FFF0
FFF0
FFE0
ENDCHAR
STARTCHAR braceleft
ENCODING 123
SWIDTH 600 0
DWIDTH 17 0
BBX 10 29 3 -4
BITMAP
0040
07C0
0FC0
0F00
0E00
0E00
0E00
0E00
0E00
0E00
0600
0F00
0E00
FE00
F800
FC00
1E00
0E00
0700
0E00
0E00
0E00
0E00
0E00
0E00
0E00
0FC0
07C0
01C0
ENDCHAR
STARTCHAR bar
ENCODING 124
SWIDTH 600 0
DWIDTH 17 0
BBX 3 27 7 -3
BITMAP
E0
E0
E0
E0
E0
E0
E0
E0
E0
E0
E0
E0
E0
E0
E0
E0
E0
E0
E0
E0
E0
E0
E0
E0
E0
E0
E0
ENDCHAR
STARTCHAR braceright
ENCODING 125
SWIDTH 600 0
DWIDTH 17 0
BBX 10 29 4 -4
BITMAP
C000
F800
FC00
1C00
1C00
1C00
1C00
1C00
1C00
1C00
1C00
1C00
1E00
0FC0
07C0
0FC0
1E00
1C00
1C00
1C00
1C00
1C00
1C00
1C00
1C00
1C00
FC00
F800
F000
ENDCHAR
STARTCHAR asciitilde
ENCODING 126
SWIDTH 600 0
DWIDTH 17 0
BBX 15 6 1 7
BITMAP
0C00
3F06
7F8E
73FC
E1FC
2078
ENDCHAR
STARTCHAR exclamdown
ENCODING 161
SWIDTH 600 0
DWIDTH 17 0
BBX 5 20 6 -6
BITMAP
70
78
F8
70
00
00
00
70
70
70
70
70
70
70
70
70
70
70
70
78
ENDCHAR
STARTCHAR copyright
ENCODING 169
SWIDTH 600 0
DWIDTH 17 0
BBX 16 19 1 3
BITMAP
07E0
1FF0
3838
718C
67E6
CFE6
CE46
DC03
DC03
DC03
DC03
DC03
CE27
CFE6
67E6
718C
3818
1FF0
07E0
ENDCHAR
STARTCHAR guillemotleft
ENCODING 171
SWIDTH 600 0
DWIDTH 17 0
BBX 13 15 2 1
BITMAP
0410
0E38
1C38
3C70
38F0
79E0
F3C0
E3C0
F3C0
71E0
38E0
3C70
1C38
0E38
0410
ENDCHAR
STARTCHAR guillemotright
ENCODING 187
SWIDTH 600 0
DWIDTH 17 0
BBX 13 15 2 1
BITMAP
4080
E380
71C0
78E0
38F0
3C78
1E78
0E38
1E78
1C78
3CF0
78E0
71C0
E380
4080
ENDCHAR
STARTCHAR questiondown
ENCODING 191
SWIDTH 600 0
DWIDTH 17 0
BBX 12 21 3 -6
BITMAP
0700
0F00
0F80
0700
0000
0000
0000
0700
0700
0F00
0E00
1E00
7C00
F000
E000
E000
E040
F060
FFF0
7FC0
1F80
ENDCHAR
STARTCHAR Aacute
ENCODING 193
SWIDTH 600 0
DWIDTH 17 0
BBX 17 27 0 0
BITMAP
002000
007000
01F000
07C000
030000
000000
000000
03E000
03E000
03F000
077000
077000
077800
073800
0E3800
0E3C00
0E1C00
1C1C00
1C1C00
1FFE00
3FFE00
3FFE00
380F00
780700
700700
700780
F00780
ENDCHAR
STARTCHAR Eacute
ENCODING 201
SWIDTH 600 0
DWIDTH 17 0
BBX 12 27 3 0
BITMAP
0080
0380
0FC0
1F00
1800
0000
0000
FFF0
FFF0
FFF0
F000
F000
F000
F000
F000
FFE0
FFE0
FFE0
F000
F000
F000
F000
F000
F000
FFF0
FFF0
FFF0
ENDCHAR
STARTCHAR Iacute
ENCODING 205
SWIDTH 600 0
DWIDTH 17 0
BBX 12 27 3 0
BITMAP
0100
0380
0F80
3E00
1800
0000
0000
FFF0
FFF0
FFF0
0E00
0E00
0E00
0E00
0E00
0E00
0E00
0E00
0E00
0E00
0E00
0E00
0E00
0E00
FFF0
FFF0
FFF0
ENDCHAR
STARTCHAR Ntilde
ENCODING 209
SWIDTH 600 0
DWIDTH 17 0
BBX 13 27 2 0
BITMAP
0C00
1E70
3FE0
33E0
1080
0000
0000
F838
F838
F838
FC38
FC38
FC38
EE38
EE38
E738
E738
E738
E3B8
E3B8
E3B8
E1D8
E1D8
E0F8
E0F8
E0F8
E078
ENDCHAR
STARTCHAR Oacute
ENCODING 211
SWIDTH 600 0
DWIDTH 17 0
BBX 15 26 1 0
BITMAP
00E0
01E0
07E0
0F00
0800
0000
07E0
1FF0
3FF8
383C
701C
701E
F00E
F00E
F00E
F00E
F00E
F00E
F00E
F00E
701E
781C
783C
3FF8
1FF0
07C0
ENDCHAR
STARTCHAR Uacute
ENCODING 218
SWIDTH 600 0
DWIDTH 17 0
BBX 14 27 2 0
BITMAP
0080
01C0
07C0
1F00
0C00
0000
0000
E03C
E03C
E03C
E03C
E03C
E03C
E03C
E03C
E03C
E03C
E03C
E03C
E03C
E03C
E03C
F038
F078
7FF0
3FE0
0FC0
ENDCHAR
STARTCHAR Udieresis
ENCODING 220
SWIDTH 600 0
DWIDTH 17 0
BBX 14 27 2 0
BITMAP
3860
38F0
38F0
3860
0000
0000
0000
E03C
E03C
E03C
E03C
E03C
E03C
E03C
E03C
E03C
E03C
E03C
E03C
E03C
E03C
E03C
F038
F078
7FF0
3FE0
0FC0
ENDCHAR
STARTCHAR aacute
ENCODING 225
SWIDTH 600 0
DWIDTH 17 0
BBX 13 24 2 0
BITMAP
0080
03C0
07C0
1F00
1C00
0000
0000
0000
1F80
7FE0
7FF0
00F0
0070
0070
1FF0
7FF0
FFF0
F070
E070
E070
E0F0
FFF8
7FB8
3E18
ENDCHAR
STARTCHAR eacute
ENCODING 233
SWIDTH 600 0
DWIDTH 17 0
BBX 14 24 2 0
BITMAP
0040
01C0
07E0
1F80
0C00
0000
0000
0000
0FC0
1FE0
3FF0
7078
F038
E038
FFF8
FFFC
FFF8
E000
F000
F000
7810
3FF0
3FF8
0FC0
ENDCHAR
STARTCHAR iacute
ENCODING 237
SWIDTH 600 0
DWIDTH 17 0
BBX 12 24 3 0
BITMAP
0100
0780
1F80
3C00
1000
0000
0000
0000
FF00
FF00
FF00
0700
0700
0700
0700
0700
0700
0700
0700
0700
0700
FFF0
FFF0
FFF0
ENDCHAR
STARTCHAR ntilde
ENCODING 241
SWIDTH 600 0
DWIDTH 17 0
BBX 12 23 3 0
BITMAP
3C40
7FC0
7FC0
2380
0000
0000
0000
C7C0
EFE0
FFF0
F0F0
E0F0
E070
E070
E070
E070
E070
E070
E070
E070
E070
E070
E070
ENDCHAR
STARTCHAR oacute
ENCODING 243
SWIDTH 600 0
DWIDTH 17 0
BBX 14 24 2 0
BITMAP
0080
01C0
07C0
1F00
0C00
0000
0000
0000
0FC0
3FE0
7FF0
7078
F038
E038
E03C
E03C
E03C
E03C
F038
F038
7878
7FF0
3FE0
0F80
ENDCHAR
STARTCHAR uacute
ENCODING 250
SWIDTH 600 0
DWIDTH 17 0
BBX 12 24 3 0
BITMAP
0100
0780
1F80
3C00
1000
0000
0000
0000
E070
E070
E070
E070
E070
E070
E070
E070
E070
E070
E070
E070
E0F0
F3F0
FF70
3E70
ENDCHAR
STARTCHAR udieresis
ENCODING 252
SWIDTH 600 0
DWIDTH 17 0
BBX 12 23 3 0
BITMAP
70C0
71E0
71E0
70C0
0000
0000
0000
E070
E070
E070
E070
E070
E070
E070
E070
E070
E070
E070
E070
E0F0
F3F0
FF70
3E70
ENDCHAR
STARTCHAR emdash
ENCODING 8212
SWIDTH 600 0
DWIDTH 17 0
BBX 17 3 0 8
BITMAP
FFFF80
FFFF80
FFFF80
ENDCHAR
STARTCHAR quoteleft
ENCODING 8216
SWIDTH 600 0
DWIDTH 17 0
BBX 7 12 5 12
BITMAP
04
0E
1C
38
70
60
78
FC
FC
7E
7C
38
ENDCHAR
STARTCHAR quoteright
ENCODING 8217
SWIDTH 600 0
DWIDTH 17 0
BBX 7 11 5 12
BITMAP
7C
7C
7E
7E
3E
0C
1C
18
38
F0
60
ENDCHAR
STARTCHAR quotedblleft
ENCODING 8220
SWIDTH 600 0
DWIDTH 17 0
BBX 14 12 2 12
BITMAP
0808
1C1C
3838
7070
E0E0
C0C0
F0F0
F9F8
FDF8
FCFC
F8F8
7070
ENDCHAR
STARTCHAR quotedblright
ENCODING 8221
SWIDTH 600 0
DWIDTH 17 0
BBX 14 11 2 12
BITMAP
78F8
FCFC
FCFC
FCFC
7C7C
1C1C
1818
3838
7070
E1E0
C0C0
ENDCHAR
STARTCHAR bullet
ENCODING 8226
SWIDTH 600 0
DWIDTH 17 0
BBX 7 8 5 6
BITMAP
3C
7E
FE
FE
FE
FE
7E
3C
ENDCHAR
STARTCHAR arrowright
ENCODING 8594
SWIDTH 600 0
DWIDTH 17 0
BBX 17 19 0 0
BITMAP
008000
00C000
01E000
00F000
00F000
007800
003C00
001E00
FFFF00
FFFF80
FFFF00
000E00
001C00
003C00
007800
00F000
01E000
01C000
008000
ENDCHAR
STARTCHAR infinity
ENCODING 8734
SWIDTH 600 0
DWIDTH 17 0
BBX 18 11 0 3
BITMAP
7E1F00
7F3F80
E37380
E1E380
E1C1C0
E1C1C0
E1C1C0
E3E380
F77780
7F3F00
3C1E00
ENDCHAR
STARTCHAR heart
ENCODING 9829
SWIDTH 600 0
DWIDTH 17 0
BBX 16 16 1 2
BITMAP
3C3C
7E7E
FEFE
FFFF
FFFF
FFFE
FFFE
7FFE
3FFC
3FF8
1FF0
0FE0
07E0
03C0
0380
0100
ENDCHAR
STARTCHAR .notdef
ENCODING -1
SWIDTH 600 0
DWIDTH 17 0
BBX 8 19 1 0
BITMAP
FF
81
81
81
81
81
81
81
81
81
81
81
81
81
81
81
81
81
FF
ENDCHAR
STARTCHAR glyph2
ENCODING -1
SWIDTH 600 0
DWIDTH 17 0
BBX 1 1 0 0
BITMAP
00
ENDCHAR
ENDFONT
