STARTFONT 2.1
FONT -Samiam-VenusTerm-Book-R-Normal--33-240-100-100-M-200-ISO10646-1
SIZE 24 100 100
FONTBOUNDINGBOX 20 38 0 -7
COMMENT "Generated by fontforge, http://fontforge.sourceforge.net"
COMMENT "Digitized data copyright (c) 2012-2015, The Mozilla Foundation and Telefonica S.A."
STARTPROPERTIES 40
FOUNDRY "Samiam"
FAMILY_NAME "VenusTerm"
WEIGHT_NAME "Book"
SLANT "R"
SETWIDTH_NAME "Normal"
ADD_STYLE_NAME ""
PIXEL_SIZE 33
POINT_SIZE 240
RESOLUTION_X 100
RESOLUTION_Y 100
SPACING "M"
AVERAGE_WIDTH 200
CHARSET_REGISTRY "ISO10646"
CHARSET_ENCODING "1"
FONTNAME_REGISTRY ""
CHARSET_COLLECTIONS "ISO10646-1"
FONT_NAME "VenusTerm"
FACE_NAME "VenusTerm"
COPYRIGHT "Digitized data copyright (c) 2012-2015, The Mozilla Foundation and Telefonica S.A."
FONT_VERSION "3.206;PS 003.206;hotconv 1.0.70;makeotf.lib2.5.58329; ttfautohint (v1.8.3) -l 8 -r 50 -G 200 -x 14 -D latn -f none -a qss -W -X """
FONT_ASCENT 26
FONT_DESCENT 7
UNDERLINE_POSITION -3
UNDERLINE_THICKNESS 2
X_HEIGHT 17
CAP_HEIGHT 22
RAW_ASCENT 800
RAW_DESCENT 200
NORM_SPACE 20
RELATIVE_WEIGHT 40
RELATIVE_SETWIDTH 50
SUPERSCRIPT_X 0
SUPERSCRIPT_Y 11
SUPERSCRIPT_SIZE 19
SUBSCRIPT_X 0
SUBSCRIPT_Y 2
SUBSCRIPT_SIZE 19
FIGURE_WIDTH 20
AVG_LOWERCASE_WIDTH 200
AVG_UPPERCASE_WIDTH 200
ENDPROPERTIES
CHARS 126
STARTCHAR uni000D
ENCODING 13
SWIDTH 600 0
DWIDTH 20 0
BBX 1 1 0 0
BITMAP
00
ENDCHAR
STARTCHAR space
ENCODING 32
SWIDTH 600 0
DWIDTH 20 0
BBX 1 1 0 0
BITMAP
00
ENDCHAR
STARTCHAR exclam
ENCODING 33
SWIDTH 600 0
DWIDTH 20 0
BBX 5 23 7 0
BITMAP
78
78
78
78
78
78
78
78
78
78
78
78
78
78
70
00
00
00
70
78
F8
78
70
ENDCHAR
STARTCHAR quotedbl
ENCODING 34
SWIDTH 600 0
DWIDTH 20 0
BBX 10 9 5 16
BITMAP
F3C0
F3C0
F3C0
F3C0
F3C0
F3C0
F380
F380
E380
ENDCHAR
STARTCHAR numbersign
ENCODING 35
SWIDTH 600 0
DWIDTH 20 0
BBX 16 23 2 0
BITMAP
0E1E
0E1C
0E1C
0E1C
0E1C
7FFF
7FFF
7FFF
1C38
1C38
1C38
1C38
1C38
3C38
3838
FFFE
FFFE
FFFE
3870
3870
3870
7870
70F0
ENDCHAR
STARTCHAR dollar
ENCODING 36
SWIDTH 600 0
DWIDTH 20 0
BBX 16 34 2 -5
BITMAP
0180
0180
0180
0180
0180
01C0
0FF8
3FFE
3FBF
7984
7180
7180
7980
7D80
3F80
1FC0
0FF0
03FC
01FE
019E
018F
018F
018F
018F
618F
F19E
FFFE
3FF8
0FF0
0180
0180
0180
0180
0180
ENDCHAR
STARTCHAR percent
ENCODING 37
SWIDTH 600 0
DWIDTH 20 0
BBX 19 24 0 -1
BITMAP
1F0180
3F81C0
73C380
61C700
E1C700
E1CE00
71CC00
73DC00
3FB800
1F3800
007000
00E000
00E000
01CF80
019FC0
03B8E0
0738E0
0738E0
0E38E0
0C38E0
1C3CE0
381FC0
380F80
100000
ENDCHAR
STARTCHAR ampersand
ENCODING 38
SWIDTH 600 0
DWIDTH 20 0
BBX 17 23 2 0
BITMAP
0FC000
3FF000
7FF800
783000
700000
700000
780000
3C0000
1FFF80
0FFF80
3FFF80
781C00
F01C00
F01C00
E01C00
E01C00
E01C00
E01C00
F01C00
F83C00
7FFC00
3FF000
0FC000
ENDCHAR
STARTCHAR quotesingle
ENCODING 39
SWIDTH 600 0
DWIDTH 20 0
BBX 4 9 8 16
BITMAP
F0
F0
F0
F0
F0
F0
F0
E0
E0
ENDCHAR
STARTCHAR parenleft
ENCODING 40
SWIDTH 600 0
DWIDTH 20 0
BBX 10 33 4 -5
BITMAP
0080
01C0
03C0
0780
0F00
1E00
3E00
3C00
7800
7800
7000
F000
F000
F000
F000
F000
F000
F000
F000
F000
F000
F000
7800
7800
7800
3C00
3E00
1E00
0F00
0780
03C0
01C0
0080
ENDCHAR
STARTCHAR parenright
ENCODING 41
SWIDTH 600 0
DWIDTH 20 0
BBX 11 33 5 -5
BITMAP
2000
7000
F800
3C00
1E00
0F00
0F00
0780
0780
03C0
03C0
01C0
01E0
01E0
01E0
01E0
01E0
01E0
01E0
01E0
01E0
01C0
03C0
03C0
0780
0780
0F00
0F00
1E00
3C00
F800
7000
2000
ENDCHAR
STARTCHAR asterisk
ENCODING 42
SWIDTH 600 0
DWIDTH 20 0
BBX 14 13 3 5
BITMAP
0780
0700
0700
4308
7338
FFFC
FFF8
0780
0FC0
1FE0
3CF0
38F0
1860
ENDCHAR
STARTCHAR plus
ENCODING 43
SWIDTH 600 0
DWIDTH 20 0
BBX 13 13 3 4
BITMAP
0700
0700
0700
0700
0700
FFF8
FFF8
FFF8
0700
0700
0700
0700
0700
ENDCHAR
STARTCHAR comma
ENCODING 44
SWIDTH 600 0
DWIDTH 20 0
BBX 6 12 7 -6
BITMAP
78
FC
FC
FC
FC
78
78
70
F0
F0
E0
E0
ENDCHAR
STARTCHAR hyphen
ENCODING 45
SWIDTH 600 0
DWIDTH 20 0
BBX 12 3 4 9
BITMAP
FFF0
FFF0
FFF0
ENDCHAR
STARTCHAR period
ENCODING 46
SWIDTH 600 0
DWIDTH 20 0
BBX 6 6 7 0
BITMAP
78
FC
FC
FC
FC
78
ENDCHAR
STARTCHAR slash
ENCODING 47
SWIDTH 600 0
DWIDTH 20 0
BBX 17 31 1 -4
BITMAP
000200
000380
000780
000700
000F00
000E00
001E00
001C00
003C00
003C00
007800
007800
00F000
00F000
00E000
01E000
01C000
03C000
038000
078000
070000
0F0000
0E0000
1E0000
1C0000
3C0000
380000
780000
700000
F00000
100000
ENDCHAR
STARTCHAR zero
ENCODING 48
SWIDTH 600 0
DWIDTH 20 0
BBX 16 23 2 0
BITMAP
07E0
1FF0
3FF8
3C3C
783E
783E
707E
F06E
F0EE
F0CF
F1CF
F18F
F38F
F30F
F70E
F60E
7E1E
7C1E
7C1E
3C3C
3FF8
1FF0
07E0
ENDCHAR
STARTCHAR one
ENCODING 49
SWIDTH 600 0
DWIDTH 20 0
BBX 14 23 3 0
BITMAP
03C0
0FC0
1FC0
7FC0
FBC0
F3C0
43C0
03C0
03C0
03C0
03C0
03C0
03C0
03C0
03C0
03C0
03C0
03C0
03C0
03C0
7FFC
7FFC
7FFC
ENDCHAR
STARTCHAR two
ENCODING 50
SWIDTH 600 0
DWIDTH 20 0
BBX 15 23 2 0
BITMAP
0FC0
3FF0
7FF8
F07C
603C
003C
003C
003C
003C
003C
0078
0078
00F0
01E0
03C0
0780
0F00
1E00
3C00
7800
FFFE
FFFE
FFFC
ENDCHAR
STARTCHAR three
ENCODING 51
SWIDTH 600 0
DWIDTH 20 0
BBX 16 23 1 0
BITMAP
07E0
1FF8
7FFC
383E
201E
001E
001E
001E
003C
03F8
03E0
03FC
003E
001E
000F
000F
000F
000F
201E
F83E
7FFC
3FF8
0FE0
ENDCHAR
STARTCHAR four
ENCODING 52
SWIDTH 600 0
DWIDTH 20 0
BBX 16 23 2 0
BITMAP
0300
03C0
0780
0780
0700
0F00
0E00
1E00
1E00
3C38
3C38
3838
7838
7838
F038
FFFF
FFFF
FFFF
0078
0078
0078
0078
0078
ENDCHAR
STARTCHAR five
ENCODING 53
SWIDTH 600 0
DWIDTH 20 0
BBX 15 23 2 0
BITMAP
3FFC
3FFC
3FFC
3800
3800
3800
3800
3800
3BF0
3FF8
3FFC
383C
001E
001E
001E
001E
001E
001E
203E
707C
FFF8
3FF0
0FC0
ENDCHAR
STARTCHAR six
ENCODING 54
SWIDTH 600 0
DWIDTH 20 0
BBX 16 23 2 0
BITMAP
03F0
0FFC
1FF8
1E08
3C00
7800
7800
71F0
77F8
FFFC
FC3E
F81E
F00E
F00F
F00F
F00F
700F
780E
781E
3C3C
3FFC
1FF8
07E0
ENDCHAR
STARTCHAR seven
ENCODING 55
SWIDTH 600 0
DWIDTH 20 0
BBX 14 23 3 0
BITMAP
FFFC
FFFC
FFFC
003C
0038
0078
0070
00F0
00E0
01E0
01E0
03C0
03C0
0780
0780
0700
0F00
0F00
1E00
1E00
3C00
3C00
3800
ENDCHAR
STARTCHAR eight
ENCODING 56
SWIDTH 600 0
DWIDTH 20 0
BBX 16 23 2 0
BITMAP
07E0
1FF8
3FFC
7C3E
781E
701E
701E
781E
7C3C
3F78
1FF0
1FF8
3CFC
783E
F01E
F00F
F00F
F00F
F00F
783E
7FFC
3FF8
0FE0
ENDCHAR
STARTCHAR nine
ENCODING 57
SWIDTH 600 0
DWIDTH 20 0
BBX 15 24 2 -1
BITMAP
07E0
1FF8
3FFC
783C
F01E
F01E
F01E
F01E
F00E
F00E
F01E
783E
7FFE
3FDE
0F9E
001C
003C
007C
00F8
01F0
0FE0
3F80
3E00
3000
ENDCHAR
STARTCHAR colon
ENCODING 58
SWIDTH 600 0
DWIDTH 20 0
BBX 6 18 7 0
BITMAP
78
F8
FC
FC
FC
78
00
00
00
00
00
00
78
F8
FC
FC
FC
78
ENDCHAR
STARTCHAR semicolon
ENCODING 59
SWIDTH 600 0
DWIDTH 20 0
BBX 6 23 7 -5
BITMAP
78
F8
FC
FC
FC
78
00
00
00
00
00
78
F8
FC
FC
FC
78
78
70
F0
F0
E0
E0
ENDCHAR
STARTCHAR less
ENCODING 60
SWIDTH 600 0
DWIDTH 20 0
BBX 14 19 3 1
BITMAP
0008
0038
007C
01F8
07E0
0FC0
3F00
7C00
F800
E000
F000
FC00
3F00
1F80
07E0
03F8
00FC
0038
0018
ENDCHAR
STARTCHAR equal
ENCODING 61
SWIDTH 600 0
DWIDTH 20 0
BBX 14 10 3 6
BITMAP
FFFC
FFFC
FFFC
0000
0000
0000
0000
FFFC
FFFC
FFFC
ENDCHAR
STARTCHAR greater
ENCODING 62
SWIDTH 600 0
DWIDTH 20 0
BBX 14 19 3 1
BITMAP
4000
7000
F800
7E00
3F00
0FC0
03F0
01F8
007C
001C
003C
00FC
03F0
07E0
1F80
7E00
FC00
F000
6000
ENDCHAR
STARTCHAR question
ENCODING 63
SWIDTH 600 0
DWIDTH 20 0
BBX 14 23 3 0
BITMAP
0FC0
3FF0
FFF8
F078
603C
003C
003C
0078
01F0
03E0
07C0
0780
0F00
0F00
0F00
0000
0000
0000
0700
0F00
0F80
0F00
0700
ENDCHAR
STARTCHAR at
ENCODING 64
SWIDTH 600 0
DWIDTH 20 0
BBX 20 27 0 -4
BITMAP
03F800
0FFE00
3FFF00
FC0F80
7003C0
6001C0
0001E0
0001E0
0000E0
07C0E0
1FF0E0
3FF0E0
3C70E0
7870E0
7870F0
7070E0
7070E0
7070E0
7070E0
7070E0
7870E0
78F8E0
3FD8E0
3F99E0
0F1FC0
000FC0
000700
ENDCHAR
STARTCHAR A
ENCODING 65
SWIDTH 600 0
DWIDTH 20 0
BBX 20 23 0 0
BITMAP
01F000
01F800
01F800
03F800
03BC00
039C00
079C00
079E00
071E00
070E00
0F0F00
0E0F00
0E0700
1E0780
1FFF80
1FFF80
3FFF80
3C03C0
3803C0
7801C0
7801E0
7801E0
F001F0
ENDCHAR
STARTCHAR B
ENCODING 66
SWIDTH 600 0
DWIDTH 20 0
BBX 15 23 3 0
BITMAP
FFC0
FFF0
FFF8
F07C
F03C
F03C
F03C
F03C
F03C
F078
FFF0
FFE0
FFF8
F03C
F01E
F01E
F01E
F01E
F01E
F03E
FFFC
FFF8
FFC0
ENDCHAR
STARTCHAR C
ENCODING 67
SWIDTH 600 0
DWIDTH 20 0
BBX 17 23 2 0
BITMAP
01F800
0FFF00
1FFF80
3E0700
7C0200
780000
F80000
F00000
F00000
F00000
F00000
F00000
F00000
F00000
F00000
F00000
F80000
780000
7C0100
3E0700
1FFF80
0FFF00
03FC00
ENDCHAR
STARTCHAR D
ENCODING 68
SWIDTH 600 0
DWIDTH 20 0
BBX 17 23 2 0
BITMAP
FFC000
FFF000
FFF800
F07C00
F01E00
F01E00
F00F00
F00F00
F00F00
F00F00
F00F00
F00F80
F00F00
F00F00
F00F00
F00F00
F00F00
F01F00
F03E00
F07E00
FFFC00
FFF800
FFE000
ENDCHAR
STARTCHAR E
ENCODING 69
SWIDTH 600 0
DWIDTH 20 0
BBX 14 23 4 0
BITMAP
FFF8
FFF8
FFF8
F000
F000
F000
F000
F000
F000
F000
FFF0
FFF0
FFF0
F000
F000
F000
F000
F000
F000
F000
FFFC
FFFC
FFFC
ENDCHAR
STARTCHAR F
ENCODING 70
SWIDTH 600 0
DWIDTH 20 0
BBX 14 23 4 0
BITMAP
FFFC
FFFC
FFFC
F000
F000
F000
F000
F000
F000
F000
FFF8
FFF8
FFF8
F000
F000
F000
F000
F000
F000
F000
F000
F000
F000
ENDCHAR
STARTCHAR G
ENCODING 71
SWIDTH 600 0
DWIDTH 20 0
BBX 17 23 1 0
BITMAP
01FC00
07FF00
0FFF80
1F0700
3C0200
7C0000
780000
780000
F00000
F00000
F07F80
F07F80
F03F80
F00780
F00780
780780
780780
780780
3C0780
3E0780
1FFF80
0FFF00
03F800
ENDCHAR
STARTCHAR H
ENCODING 72
SWIDTH 600 0
DWIDTH 20 0
BBX 15 23 2 0
BITMAP
F00E
F00E
F00E
F00E
F00E
F00E
F00E
F00E
F00E
FFFE
FFFE
FFFE
F00E
F00E
F00E
F00E
F00E
F00E
F00E
F00E
F00E
F00E
F00E
ENDCHAR
STARTCHAR I
ENCODING 73
SWIDTH 600 0
DWIDTH 20 0
BBX 14 23 3 0
BITMAP
FFFC
FFFC
FFFC
0780
0780
0780
0780
0780
0780
0780
0780
0780
0780
0780
0780
0780
0780
0780
0780
0780
FFFC
FFFC
FFFC
ENDCHAR
STARTCHAR J
ENCODING 74
SWIDTH 600 0
DWIDTH 20 0
BBX 15 23 2 0
BITMAP
0FFE
0FFE
0FFE
001E
001E
001E
001E
001E
001E
001E
001E
001E
001E
001E
001E
001E
001E
003C
003C
607C
FFF8
7FF0
1FC0
ENDCHAR
STARTCHAR K
ENCODING 75
SWIDTH 600 0
DWIDTH 20 0
BBX 17 23 3 0
BITMAP
F01F00
F01E00
F03C00
F07800
F0F800
F0F000
F1E000
F3C000
F7C000
F78000
FF0000
FF8000
F78000
F3C000
F3E000
F1E000
F0F000
F0F800
F07C00
F03C00
F03E00
F01F00
F00F80
ENDCHAR
STARTCHAR L
ENCODING 76
SWIDTH 600 0
DWIDTH 20 0
BBX 14 23 4 0
BITMAP
F000
F000
F000
F000
F000
F000
F000
F000
F000
F000
F000
F000
F000
F000
F000
F000
F000
F000
F000
F000
FFFC
FFFC
FFFC
ENDCHAR
STARTCHAR M
ENCODING 77
SWIDTH 600 0
DWIDTH 20 0
BBX 18 23 1 0
BITMAP
7C0F80
7C0F80
7C0F80
7C1F80
7E1F80
7E1B80
7E1B80
761B80
773B80
773B80
773380
F73380
F33380
F3F380
F3F380
F3E3C0
F1E3C0
E1E3C0
E1E3C0
E003C0
E003C0
E003C0
E003C0
ENDCHAR
STARTCHAR N
ENCODING 78
SWIDTH 600 0
DWIDTH 20 0
BBX 15 23 2 0
BITMAP
FC0E
FC0E
FC0E
FE0E
EE0E
EE0E
EF0E
F70E
F70E
F78E
F38E
F3CE
F1CE
F1CE
F1EE
F0EE
F0EE
F0FE
F07E
F07E
F03E
F03E
F03E
ENDCHAR
STARTCHAR O
ENCODING 79
SWIDTH 600 0
DWIDTH 20 0
BBX 18 23 1 0
BITMAP
03F000
0FFC00
1FFE00
3E1F00
3C0F00
780780
780780
700780
F00780
F00380
F003C0
F003C0
F003C0
F00380
F00780
780780
780780
780780
3C0F00
3E1F00
1FFE00
0FFC00
03F000
ENDCHAR
STARTCHAR P
ENCODING 80
SWIDTH 600 0
DWIDTH 20 0
BBX 16 23 3 0
BITMAP
FFE0
FFF8
FFFC
F03E
F01E
F01E
F00F
F00F
F00F
F01E
F01E
F07E
FFFC
FFF8
FFC0
F000
F000
F000
F000
F000
F000
F000
F000
ENDCHAR
STARTCHAR Q
ENCODING 81
SWIDTH 600 0
DWIDTH 20 0
BBX 19 28 1 -5
BITMAP
03F000
0FFC00
1FFE00
3E1F00
3C0F00
780780
780780
780780
700780
F00780
F003C0
F003C0
F003C0
F00780
F00780
780780
780780
780700
3C0F00
3E1E00
1FFC00
0FF800
03FF00
001F80
0007C0
0003C0
0001E0
0001C0
ENDCHAR
STARTCHAR R
ENCODING 82
SWIDTH 600 0
DWIDTH 20 0
BBX 16 23 3 0
BITMAP
FFC0
FFF8
FFFC
F07C
F03E
F01E
F01E
F01E
F01E
F03C
F07C
FFF8
FFF0
FFC0
F3E0
F1E0
F0F0
F0F8
F078
F03C
F03E
F01E
F00F
ENDCHAR
STARTCHAR S
ENCODING 83
SWIDTH 600 0
DWIDTH 20 0
BBX 17 23 1 0
BITMAP
03F800
0FFE00
3FFF80
3C0F00
780200
780000
780000
7C0000
3E0000
3FC000
0FF800
07FE00
00FF00
001F80
000F80
000780
000780
000780
600F80
781F00
FFFF00
3FFC00
0FF000
ENDCHAR
STARTCHAR T
ENCODING 84
SWIDTH 600 0
DWIDTH 20 0
BBX 18 23 1 0
BITMAP
FFFFC0
FFFFC0
FFFF80
01E000
01E000
01E000
01E000
01E000
01E000
01E000
01E000
01E000
01E000
01E000
01E000
01E000
01E000
01E000
01E000
01E000
01E000
01E000
01E000
ENDCHAR
STARTCHAR U
ENCODING 85
SWIDTH 600 0
DWIDTH 20 0
BBX 16 23 2 0
BITMAP
F00F
F00F
F00F
F00F
F00F
F00F
F00F
F00F
F00F
F00F
F00F
F00F
F00F
F00F
F00F
F00F
F00F
F00F
781E
7C3E
3FFC
1FF8
07E0
ENDCHAR
STARTCHAR V
ENCODING 86
SWIDTH 600 0
DWIDTH 20 0
BBX 19 23 0 0
BITMAP
F801E0
7801E0
7801E0
3C03C0
3C03C0
3C03C0
1C0380
1E0780
1E0780
1E0700
0F0F00
0F0F00
0F0E00
070E00
079E00
079C00
039C00
03FC00
03FC00
01F800
01F800
01F800
00F000
ENDCHAR
STARTCHAR W
ENCODING 87
SWIDTH 600 0
DWIDTH 20 0
BBX 20 23 0 0
BITMAP
F000F0
F000F0
F000E0
70F0E0
70F0E0
70F0E0
71F0E0
71F9E0
79F9E0
79B9C0
79B9C0
3999C0
3999C0
3B99C0
3B9DC0
3B9DC0
3B1F80
3B1F80
3B0F80
1F0F80
1F0F80
1F0F80
1F0F80
ENDCHAR
STARTCHAR X
ENCODING 88
SWIDTH 600 0
DWIDTH 20 0
BBX 18 23 1 0
BITMAP
F80780
780780
3C0F00
3C1E00
1E1E00
1E3C00
0F3C00
077800
07F000
03F000
03E000
03F000
03F000
07F800
0F7800
0F3C00
1E3C00
1E1E00
3C0F00
3C0F00
780780
780780
F003C0
ENDCHAR
STARTCHAR Y
ENCODING 89
SWIDTH 600 0
DWIDTH 20 0
BBX 19 23 0 0
BITMAP
F801E0
7801E0
3C03C0
3C03C0
1E0780
1E0780
0F0F00
0F0E00
079E00
079C00
03FC00
03F800
01F800
00F000
00F000
00F000
00F000
00F000
00F000
00F000
00F000
00F000
00F000
ENDCHAR
STARTCHAR Z
ENCODING 90
SWIDTH 600 0
DWIDTH 20 0
BBX 16 23 2 0
BITMAP
7FFF
7FFF
7FFF
001E
003E
003C
0078
00F8
00F0
01E0
03E0
03C0
0780
0F80
0F00
1E00
3E00
3C00
7800
F800
FFFF
FFFF
FFFF
ENDCHAR
STARTCHAR bracketleft
ENCODING 91
SWIDTH 600 0
DWIDTH 20 0
BBX 9 31 6 -4
BITMAP
FF80
FF80
FF80
E000
E000
E000
E000
E000
E000
E000
E000
E000
E000
E000
E000
E000
E000
E000
E000
E000
E000
E000
E000
E000
E000
E000
E000
E000
FF80
FF80
FF80
ENDCHAR
STARTCHAR backslash
ENCODING 92
SWIDTH 600 0
DWIDTH 20 0
BBX 17 31 1 -4
BITMAP
100000
F00000
700000
780000
380000
3C0000
1C0000
1E0000
0E0000
0F0000
070000
078000
038000
03C000
01C000
01E000
00E000
00F000
007000
007800
003800
003C00
001C00
001E00
000E00
000F00
000F00
000780
000780
000380
000200
ENDCHAR
STARTCHAR bracketright
ENCODING 93
SWIDTH 600 0
DWIDTH 20 0
BBX 9 31 5 -4
BITMAP
FF80
FF80
FF80
0380
0380
0380
0380
0380
0380
0380
0380
0380
0380
0380
0380
0380
0380
0380
0380
0380
0380
0380
0380
0380
0380
0380
0380
0380
FF80
FF80
FF80
ENDCHAR
STARTCHAR asciicircum
ENCODING 94
SWIDTH 600 0
DWIDTH 20 0
BBX 16 11 2 17
BITMAP
03C0
03C0
07E0
0FE0
0EF0
1E78
1C78
3C3C
781C
781E
F00F
ENDCHAR
STARTCHAR underscore
ENCODING 95
SWIDTH 600 0
DWIDTH 20 0
BBX 16 3 2 -6
BITMAP
FFFF
FFFF
FFFF
ENDCHAR
STARTCHAR grave
ENCODING 96
SWIDTH 600 0
DWIDTH 20 0
BBX 8 6 6 21
BITMAP
40
60
F8
FC
3F
06
ENDCHAR
STARTCHAR a
ENCODING 97
SWIDTH 600 0
DWIDTH 20 0
BBX 16 18 2 0
BITMAP
1FE0
7FF8
3FF8
207C
003C
001C
001C
0FFC
3FFC
7FFC
F81C
F01C
F01C
F03C
F87E
7FFF
7FCE
1F86
ENDCHAR
STARTCHAR b
ENCODING 98
SWIDTH 600 0
DWIDTH 20 0
BBX 15 25 3 0
BITMAP
F000
F000
F000
F000
F000
F000
F000
F3E0
F7F8
FFF8
F87C
F03C
F03E
F01E
F01E
F01E
F01E
F01E
F01E
F03E
F03C
F87C
FFF8
EFF0
E7E0
ENDCHAR
STARTCHAR c
ENCODING 99
SWIDTH 600 0
DWIDTH 20 0
BBX 14 18 3 0
BITMAP
07F0
1FFC
3FFC
7C18
7808
F000
F000
F000
F000
F000
F000
F000
F000
7800
7C18
3FFC
1FFC
07F0
ENDCHAR
STARTCHAR d
ENCODING 100
SWIDTH 600 0
DWIDTH 20 0
BBX 15 25 2 0
BITMAP
001E
001E
001E
001E
001E
001E
001E
0F9E
1FFE
3FFE
7C3E
781E
F01E
F01E
F01E
F01E
F01E
F01E
F01E
F01E
F81E
7C7E
7FFE
3FDE
0F8E
ENDCHAR
STARTCHAR e
ENCODING 101
SWIDTH 600 0
DWIDTH 20 0
BBX 16 18 2 0
BITMAP
07E0
1FF8
3FFC
3C3E
781E
700E
F00F
FFFF
FFFF
FFFF
F000
F000
7800
7800
3C0C
3FFE
1FFC
07F0
ENDCHAR
STARTCHAR f
ENCODING 102
SWIDTH 600 0
DWIDTH 20 0
BBX 16 25 3 0
BITMAP
00FC
03FF
07FE
0F82
0F00
0F00
0F00
0F00
0F00
FFF8
FFF8
FFF8
0F00
0F00
0F00
0F00
0F00
0F00
0F00
0F00
0F00
0F00
0F00
0F00
0F00
ENDCHAR
STARTCHAR g
ENCODING 103
SWIDTH 600 0
DWIDTH 20 0
BBX 17 27 2 -7
BITMAP
000100
000F00
0FFF00
3FFF80
7FF800
783C00
F01C00
F01E00
F01E00
701E00
783C00
3FFC00
1FF800
3FE000
380000
780000
780000
3FF800
3FFE00
1FFF00
000F00
000F00
E00F00
F01F00
FFFE00
7FFC00
1FF000
ENDCHAR
STARTCHAR h
ENCODING 104
SWIDTH 600 0
DWIDTH 20 0
BBX 14 25 3 0
BITMAP
F000
F000
F000
F000
F000
F000
F000
F3F0
F7F8
FFF8
FC7C
F83C
F03C
F03C
F03C
F03C
F03C
F03C
F03C
F03C
F03C
F03C
F03C
F03C
F03C
ENDCHAR
STARTCHAR i
ENCODING 105
SWIDTH 600 0
DWIDTH 20 0
BBX 13 26 4 0
BITMAP
0E00
0F00
1F00
0F00
0E00
0000
0000
0000
FF00
FF00
FF00
0700
0700
0700
0700
0700
0700
0700
0700
0700
0700
0700
0700
FFF8
FFF8
FFF8
ENDCHAR
STARTCHAR j
ENCODING 106
SWIDTH 600 0
DWIDTH 20 0
BBX 12 34 3 -7
BITMAP
00E0
01E0
01F0
01E0
00E0
0000
0000
0000
0000
7FF0
7FF0
7FF0
00F0
00F0
00F0
00F0
00F0
00F0
00F0
00F0
00F0
00F0
00F0
00F0
00F0
00F0
00E0
01E0
03E0
07C0
3F80
FE00
F800
C000
ENDCHAR
STARTCHAR k
ENCODING 107
SWIDTH 600 0
DWIDTH 20 0
BBX 16 25 3 0
BITMAP
F000
F000
F000
F000
F000
F000
F000
F01E
F03C
F078
F0F0
F1E0
F3E0
F7C0
F780
FF80
F780
F3C0
F3E0
F1F0
F0F0
F078
F03C
F03E
F01F
ENDCHAR
STARTCHAR l
ENCODING 108
SWIDTH 600 0
DWIDTH 20 0
BBX 15 25 2 0
BITMAP
FF80
FF80
FF80
0780
0780
0780
0780
0780
0780
0780
0780
0780
0780
0780
0780
0780
0780
0780
0780
0780
0780
0780
03FC
03FE
00FC
ENDCHAR
STARTCHAR m
ENCODING 109
SWIDTH 600 0
DWIDTH 20 0
BBX 17 18 1 0
BITMAP
E78F00
EFDF80
FFFF80
F9E380
F1E380
F1C380
F1C380
F1C380
F1C380
F1C380
F1C380
F1C380
F1C380
F1C380
F1C380
F1C380
F1C380
F1C380
ENDCHAR
STARTCHAR n
ENCODING 110
SWIDTH 600 0
DWIDTH 20 0
BBX 14 18 3 0
BITMAP
E3F0
E7F8
EFF8
FC7C
F83C
F03C
F03C
F03C
F03C
F03C
F03C
F03C
F03C
F03C
F03C
F03C
F03C
F03C
ENDCHAR
STARTCHAR o
ENCODING 111
SWIDTH 600 0
DWIDTH 20 0
BBX 16 18 2 0
BITMAP
07E0
1FF8
3FFC
7C3E
781E
F01E
F00F
F00F
F00F
F00F
F00F
F00F
F81E
781E
7C3C
3FFC
1FF8
07E0
ENDCHAR
STARTCHAR p
ENCODING 112
SWIDTH 600 0
DWIDTH 20 0
BBX 15 25 3 -7
BITMAP
E3E0
EFF8
EFF8
F87C
F03C
F03C
F01E
F01E
F01E
F01E
F01E
F01E
F03C
F03C
F87C
FFF8
FFF0
F7E0
F000
F000
F000
F000
F000
F000
C000
ENDCHAR
STARTCHAR q
ENCODING 113
SWIDTH 600 0
DWIDTH 20 0
BBX 15 25 2 -7
BITMAP
0F8E
1FFE
3FFE
7C3E
781E
F01E
F01E
F01E
F01E
F01E
F01E
F01E
F01E
781E
7C7E
7FFE
3FDE
0F9E
001E
001E
001E
001E
001E
001E
000E
ENDCHAR
STARTCHAR r
ENCODING 114
SWIDTH 600 0
DWIDTH 20 0
BBX 15 18 3 0
BITMAP
FC3E
FCFE
FDFE
1DCE
1F8E
1F0C
1E0C
1E00
1C00
1C00
1C00
1C00
1C00
1C00
1C00
FFC0
FFC0
FFC0
ENDCHAR
STARTCHAR s
ENCODING 115
SWIDTH 600 0
DWIDTH 20 0
BBX 15 18 2 0
BITMAP
07F0
1FFC
3FFE
7C1C
7804
7800
7C00
3F80
1FF0
07FC
007C
001E
001E
201E
703E
FFFC
7FF8
0FE0
ENDCHAR
STARTCHAR t
ENCODING 116
SWIDTH 600 0
DWIDTH 20 0
BBX 15 22 2 0
BITMAP
0F00
0F00
0F00
0F00
FFFC
FFFC
FFF8
0F00
0F00
0F00
0F00
0F00
0F00
0F00
0F00
0F00
0F00
0F00
0782
07FE
03FE
01FC
ENDCHAR
STARTCHAR u
ENCODING 117
SWIDTH 600 0
DWIDTH 20 0
BBX 14 18 3 0
BITMAP
F03C
F03C
F03C
F03C
F03C
F03C
F03C
F03C
F03C
F03C
F03C
F03C
F03C
F03C
F07C
F9FC
7FDC
3F1C
ENDCHAR
STARTCHAR v
ENCODING 118
SWIDTH 600 0
DWIDTH 20 0
BBX 16 18 2 0
BITMAP
F00F
F00F
F00E
781E
781E
781C
3C3C
3C3C
3C38
1C38
1E78
0E70
0E70
0FF0
07E0
07E0
07E0
03C0
ENDCHAR
STARTCHAR w
ENCODING 119
SWIDTH 600 0
DWIDTH 20 0
BBX 19 18 0 0
BITMAP
F000E0
7000E0
70F0E0
70F0E0
70F1E0
78F1E0
79F9C0
39F9C0
39B9C0
3999C0
3999C0
3999C0
3B9D80
1F9F80
1F1F80
1F0F80
1F0F80
1F0F80
ENDCHAR
STARTCHAR x
ENCODING 120
SWIDTH 600 0
DWIDTH 20 0
BBX 17 18 1 0
BITMAP
7C0F80
3C0F00
1E1E00
1E1C00
0F3C00
077800
07F000
03F000
01E000
03F000
07F000
077800
0F3C00
1E3C00
1E1E00
3C0F00
780F00
F80780
ENDCHAR
STARTCHAR y
ENCODING 121
SWIDTH 600 0
DWIDTH 20 0
BBX 16 25 2 -7
BITMAP
F00F
F00F
F00E
781E
781E
781C
383C
3C3C
3C38
1C38
1E78
1E70
0E70
0EF0
0FE0
07E0
07E0
07C0
01C0
03C0
0780
0F00
7F00
7C00
3800
ENDCHAR
STARTCHAR z
ENCODING 122
SWIDTH 600 0
DWIDTH 20 0
BBX 14 18 3 0
BITMAP
7FFC
7FFC
7FFC
0078
00F0
01F0
01E0
03C0
0780
0F80
0F00
1E00
3C00
7C00
7800
FFFC
FFFC
FFF8
ENDCHAR
STARTCHAR braceleft
ENCODING 123
SWIDTH 600 0
DWIDTH 20 0
BBX 11 32 4 -5
BITMAP
01E0
07E0
0FE0
0F00
0E00
0E00
0E00
0F00
0F00
0F00
0700
0700
0F00
1F00
FE00
F800
FE00
1F00
0F00
0700
0700
0F00
0F00
0F00
0F00
0E00
0E00
0E00
0F00
0FE0
07E0
01E0
ENDCHAR
STARTCHAR bar
ENCODING 124
SWIDTH 600 0
DWIDTH 20 0
BBX 4 30 8 -3
BITMAP
F0
F0
F0
F0
F0
F0
F0
F0
F0
F0
F0
F0
F0
F0
F0
F0
F0
F0
F0
F0
F0
F0
F0
F0
F0
F0
F0
F0
F0
F0
ENDCHAR
STARTCHAR braceright
ENCODING 125
SWIDTH 600 0
DWIDTH 20 0
BBX 11 32 5 -5
BITMAP
F000
FC00
FC00
1E00
1E00
1E00
1E00
1E00
1E00
1C00
1C00
1C00
1E00
1F00
0FE0
03E0
0FE0
1F00
1E00
1C00
1C00
1C00
1C00
1E00
1E00
1E00
1E00
1E00
1E00
FC00
F800
F000
ENDCHAR
STARTCHAR asciitilde
ENCODING 126
SWIDTH 600 0
DWIDTH 20 0
BBX 18 6 1 7
BITMAP
0F0000
3F81C0
7FE380
71FF00
E0FF00
003C00
ENDCHAR
STARTCHAR exclamdown
ENCODING 161
SWIDTH 600 0
DWIDTH 20 0
BBX 5 23 7 -7
BITMAP
70
78
F8
78
70
00
00
00
70
70
78
78
78
78
78
78
78
78
78
78
78
78
78
ENDCHAR
STARTCHAR copyright
ENCODING 169
SWIDTH 600 0
DWIDTH 20 0
BBX 18 21 1 4
BITMAP
03F000
0FFC00
1C0E00
300700
71F380
67F980
E711C0
CE00C0
CE00C0
CE00C0
CE00C0
CE00C0
CE00C0
CF10C0
E7F9C0
67F980
71E380
300700
1C0E00
0FFC00
03F000
ENDCHAR
STARTCHAR guillemotleft
ENCODING 171
SWIDTH 600 0
DWIDTH 20 0
BBX 15 17 2 1
BITMAP
0204
070E
0F1E
1E3C
3C3C
3C78
78F0
F9F0
F1E0
F9F0
78F8
3C78
1E3C
1E1C
0F0E
070E
0204
ENDCHAR
STARTCHAR guillemotright
ENCODING 187
SWIDTH 600 0
DWIDTH 20 0
BBX 15 17 2 1
BITMAP
2040
F1E0
70F0
3870
3C78
1E3C
1F1E
0F1E
0F0E
0F1E
1F3E
1E3C
3C78
7870
70E0
E1E0
2040
ENDCHAR
STARTCHAR questiondown
ENCODING 191
SWIDTH 600 0
DWIDTH 20 0
BBX 14 24 3 -7
BITMAP
0380
07C0
07C0
07C0
0380
0000
0000
0000
0380
0380
0380
0780
0F80
1F00
3E00
7C00
F800
F000
F000
F018
F83C
7FF8
3FF0
0FC0
ENDCHAR
STARTCHAR Aacute
ENCODING 193
SWIDTH 600 0
DWIDTH 20 0
BBX 20 31 0 0
BITMAP
000800
003800
00FC00
01F800
03E000
010000
000000
000000
01F000
01F800
01F800
03F800
03BC00
039C00
079C00
079E00
071E00
070E00
0F0F00
0E0F00
0E0700
1E0780
1FFF80
1FFF80
3FFF80
3C03C0
3803C0
7801C0
7801E0
7801E0
F001F0
ENDCHAR
STARTCHAR Eacute
ENCODING 201
SWIDTH 600 0
DWIDTH 20 0
BBX 14 31 4 0
BITMAP
0040
01C0
07E0
3FC0
1E00
1000
0000
0000
FFF8
FFF8
FFF8
F000
F000
F000
F000
F000
F000
F000
FFF0
FFF0
FFF0
F000
F000
F000
F000
F000
F000
F000
FFFC
FFFC
FFFC
ENDCHAR
STARTCHAR Iacute
ENCODING 205
SWIDTH 600 0
DWIDTH 20 0
BBX 14 31 3 0
BITMAP
0040
01C0
07E0
0FC0
1F00
0800
0000
0000
FFFC
FFFC
FFFC
0780
0780
0780
0780
0780
0780
0780
0780
0780
0780
0780
0780
0780
0780
0780
0780
0780
FFFC
FFFC
FFFC
ENDCHAR
STARTCHAR Ntilde
ENCODING 209
SWIDTH 600 0
DWIDTH 20 0
BBX 15 30 2 0
BITMAP
0F10
1F9C
1FF8
39F8
0860
0000
0000
FC0E
FC0E
FC0E
FE0E
EE0E
EE0E
EF0E
F70E
F70E
F78E
F38E
F3CE
F1CE
F1CE
F1EE
F0EE
F0EE
F0FE
F07E
F07E
F03E
F03E
F03E
ENDCHAR
STARTCHAR Oacute
ENCODING 211
SWIDTH 600 0
DWIDTH 20 0
BBX 18 30 1 0
BITMAP
003000
00F000
03F800
07E000
070000
000000
000000
03F000
0FFC00
1FFE00
3E1F00
3C0F00
780780
780780
700780
F00780
F00380
F003C0
F003C0
F003C0
F00380
F00780
780780
780780
780780
3C0F00
3E1F00
1FFE00
0FFC00
03F000
ENDCHAR
STARTCHAR Uacute
ENCODING 218
SWIDTH 600 0
DWIDTH 20 0
BBX 16 31 2 0
BITMAP
0020
00E0
03F0
07E0
0F80
0400
0000
0000
F00F
F00F
F00F
F00F
F00F
F00F
F00F
F00F
F00F
F00F
F00F
F00F
F00F
F00F
F00F
F00F
F00F
F00F
781E
7C3E
3FFC
1FF8
07E0
ENDCHAR
STARTCHAR Udieresis
ENCODING 220
SWIDTH 600 0
DWIDTH 20 0
BBX 16 30 2 0
BITMAP
1C38
3C7C
3C7C
1C38
0000
0000
0000
F00F
F00F
F00F
F00F
F00F
F00F
F00F
F00F
F00F
F00F
F00F
F00F
F00F
F00F
F00F
F00F
F00F
F00F
781E
7C3E
3FFC
1FF8
07E0
ENDCHAR
STARTCHAR aacute
ENCODING 225
SWIDTH 600 0
DWIDTH 20 0
BBX 16 27 2 0
BITMAP
0020
00E0
03F0
0FE0
0F00
0C00
0000
0000
0000
1FE0
7FF8
3FF8
207C
003C
001C
001C
0FFC
3FFC
7FFC
F81C
F01C
F01C
F03C
F87E
7FFF
7FCE
1F86
ENDCHAR
STARTCHAR eacute
ENCODING 233
SWIDTH 600 0
DWIDTH 20 0
BBX 16 27 2 0
BITMAP
0020
00F0
01F0
07E0
0F80
0400
0000
0000
0000
07E0
1FF8
3FFC
3C3E
781E
700E
F00F
FFFF
FFFF
FFFF
F000
F000
7800
7800
3C0C
3FFE
1FFC
07F0
ENDCHAR
STARTCHAR iacute
ENCODING 237
SWIDTH 600 0
DWIDTH 20 0
BBX 13 27 4 0
BITMAP
0180
07C0
0FC0
3F00
3800
2000
0000
0000
0000
FF00
FF00
FF00
0700
0700
0700
0700
0700
0700
0700
0700
0700
0700
0700
0700
FFF8
FFF8
FFF8
ENDCHAR
STARTCHAR ntilde
ENCODING 241
SWIDTH 600 0
DWIDTH 20 0
BBX 14 26 3 0
BITMAP
1C20
3F38
3FF0
73E0
21C0
0000
0000
0000
E3F0
E7F8
EFF8
FC7C
F83C
F03C
F03C
F03C
F03C
F03C
F03C
F03C
F03C
F03C
F03C
F03C
F03C
F03C
ENDCHAR
STARTCHAR oacute
ENCODING 243
SWIDTH 600 0
DWIDTH 20 0
BBX 16 27 2 0
BITMAP
0020
00E0
03F0
07E0
0F80
0400
0000
0000
0000
07E0
1FF8
3FFC
7C3E
781E
F01E
F00F
F00F
F00F
F00F
F00F
F00F
F81E
781E
7C3C
3FFC
1FF8
07E0
ENDCHAR
STARTCHAR uacute
ENCODING 250
SWIDTH 600 0
DWIDTH 20 0
BBX 14 27 3 0
BITMAP
00C0
03E0
07E0
1F80
1C00
1000
0000
0000
0000
F03C
F03C
F03C
F03C
F03C
F03C
F03C
F03C
F03C
F03C
F03C
F03C
F03C
F03C
F07C
F9FC
7FDC
3F1C
ENDCHAR
STARTCHAR udieresis
ENCODING 252
SWIDTH 600 0
DWIDTH 20 0
BBX 14 26 3 0
BITMAP
3870
78F8
78F8
3870
0000
0000
0000
0000
F03C
F03C
F03C
F03C
F03C
F03C
F03C
F03C
F03C
F03C
F03C
F03C
F03C
F03C
F07C
F9FC
7FDC
3F1C
ENDCHAR
STARTCHAR emdash
ENCODING 8212
SWIDTH 600 0
DWIDTH 20 0
BBX 20 3 0 9
BITMAP
FFFFF0
FFFFF0
FFFFF0
ENDCHAR
STARTCHAR quoteleft
ENCODING 8216
SWIDTH 600 0
DWIDTH 20 0
BBX 8 13 6 14
BITMAP
04
0F
1C
38
70
70
60
FC
FE
FE
FE
7E
3C
ENDCHAR
STARTCHAR quoteright
ENCODING 8217
SWIDTH 600 0
DWIDTH 20 0
BBX 7 14 6 13
BITMAP
18
7C
FE
FE
FE
7E
3E
0E
0C
1C
38
70
E0
40
ENDCHAR
STARTCHAR quotedblleft
ENCODING 8220
SWIDTH 600 0
DWIDTH 20 0
BBX 16 13 2 14
BITMAP
0402
1E0F
3C1E
381C
7038
E070
E070
F87C
FC7E
FE7F
FE7F
FC7E
7C3E
ENDCHAR
STARTCHAR quotedblright
ENCODING 8221
SWIDTH 600 0
DWIDTH 20 0
BBX 16 14 2 13
BITMAP
381C
7C3E
FE7F
FE7F
FE7F
7E3F
3E1F
0E07
1C0E
180E
381C
7038
E070
4020
ENDCHAR
STARTCHAR bullet
ENCODING 8226
SWIDTH 600 0
DWIDTH 20 0
BBX 8 9 6 7
BITMAP
3C
7E
FF
FF
FF
FF
FF
7E
3C
ENDCHAR
STARTCHAR arrowright
ENCODING 8594
SWIDTH 600 0
DWIDTH 20 0
BBX 19 21 0 0
BITMAP
004000
00E000
01F000
007800
003C00
003E00
001F00
000F80
0007C0
FFFFE0
FFFFE0
FFFFC0
0007C0
000F80
001F00
003E00
007C00
007800
01F000
00E000
004000
ENDCHAR
STARTCHAR infinity
ENCODING 8734
SWIDTH 600 0
DWIDTH 20 0
BBX 20 13 0 4
BITMAP
3E0780
7F1FE0
FF9FE0
F1F8F0
E0F070
E0F070
E0E070
E0F070
E1F070
F1F8F0
FF9FE0
7F1FE0
3E0780
ENDCHAR
STARTCHAR heart
ENCODING 9829
SWIDTH 600 0
DWIDTH 20 0
BBX 18 19 1 2
BITMAP
080400
3E1F00
7F3F80
FF7FC0
FFFFC0
FFFFC0
FFFFC0
FFFFC0
7FFF80
7FFF80
3FFF00
1FFE00
0FFC00
07F800
07F000
03F000
01E000
00C000
008000
ENDCHAR
STARTCHAR .notdef
ENCODING -1
SWIDTH 600 0
DWIDTH 20 0
BBX 9 22 1 0
BITMAP
FF80
8080
8080
8080
8080
8080
8080
8080
8080
8080
8080
8080
8080
8080
8080
8080
8080
8080
8080
8080
8080
FF80
ENDCHAR
STARTCHAR glyph2
ENCODING -1
SWIDTH 600 0
DWIDTH 20 0
BBX 1 1 0 0
BITMAP
00
ENDCHAR
ENDFONT
